<svg width="32" height="32" viewBox="0 0 32 32" fill="none" xmlns="http://www.w3.org/2000/svg">
<path d="M16 0C24.8304 0 32 7.1696 32 16C32 24.8304 24.8304 32 16 32C7.1696 32 0 24.8304 0 16C0 7.1696 7.1696 0 16 0Z" fill="white"/>
<path d="M16 2C23.7266 2 30 8.2734 30 16C30 23.7266 23.7266 30 16 30C8.2734 30 2 23.7266 2 16C2 8.2734 8.2734 2 16 2Z" fill="#45378F"/>
<path d="M16.2988 14.7418L16.3457 21.8187" stroke="white"/>
<path d="M8.54492 10.7449L8.61188 21.8186" stroke="white"/>
<path d="M24.0137 10.7449L24.0806 21.8186" stroke="white"/>
<path d="M12.4375 12.8488L12.4843 21.8187" stroke="white"/>
<path d="M20.1738 13.5486L20.2207 21.8187" stroke="white"/>
</svg>
